<svg width="15" height="15" viewBox="0 0 15 15" fill="none" xmlns="http://www.w3.org/2000/svg">
<g clip-path="url(#clip0_512_5)">
<path d="M14.4508 5.66807L9.71013 0.926822C9.12341 0.341815 8.32867 0.0133057 7.50013 0.0133057C6.67159 0.0133057 5.87685 0.341815 5.29013 0.926822L0.549505 5.66807C0.374771 5.84169 0.236236 6.04826 0.141931 6.27581C0.0476266 6.50337 -0.00057193 6.74738 0.00012962 6.9937V13.1293C0.00012962 13.6266 0.197674 14.1035 0.549304 14.4551C0.900935 14.8068 1.37785 15.0043 1.87513 15.0043H13.1251C13.6224 15.0043 14.0993 14.8068 14.451 14.4551C14.8026 14.1035 15.0001 13.6266 15.0001 13.1293V6.9937C15.0008 6.74738 14.9526 6.50337 14.8583 6.27581C14.764 6.04826 14.6255 5.84169 14.4508 5.66807V5.66807ZM9.37513 13.7543H5.62513V11.2956C5.62513 10.7983 5.82267 10.3214 6.1743 9.96975C6.52594 9.61812 7.00285 9.42057 7.50013 9.42057C7.99741 9.42057 8.47433 9.61812 8.82596 9.96975C9.17759 10.3214 9.37513 10.7983 9.37513 11.2956V13.7543ZM13.7501 13.1293C13.7501 13.2951 13.6843 13.4541 13.5671 13.5713C13.4499 13.6885 13.2909 13.7543 13.1251 13.7543H10.6251V11.2956C10.6251 10.4668 10.2959 9.67191 9.70984 9.08586C9.12379 8.49981 8.32893 8.17057 7.50013 8.17057C6.67133 8.17057 5.87647 8.49981 5.29042 9.08586C4.70437 9.67191 4.37513 10.4668 4.37513 11.2956V13.7543H1.87513C1.70937 13.7543 1.5504 13.6885 1.43319 13.5713C1.31598 13.4541 1.25013 13.2951 1.25013 13.1293V6.9937C1.25071 6.82806 1.3165 6.66931 1.43325 6.55182L6.17388 1.81245C6.52619 1.46178 7.00305 1.26491 7.50013 1.26491C7.99722 1.26491 8.47407 1.46178 8.82638 1.81245L13.567 6.5537C13.6833 6.67073 13.7491 6.82871 13.7501 6.9937V13.1293Z" fill="white"/>
</g>
<defs>
<clipPath id="clip0_512_5">
<rect width="15" height="15" fill="white"/>
</clipPath>
</defs>
</svg>
